<svg width="88" height="26" viewBox="0 0 88 26" fill="none" xmlns="http://www.w3.org/2000/svg">
<path d="M7.1079 12.6448C7.1079 16.1968 15.7239 14.4208 17.4759 13.8208V16.1608C14.4879 17.6848 3.0399 18.3688 2.8479 12.6448C3.0399 6.92079 14.4879 7.60479 17.4759 9.12879V11.4688C15.7239 10.8688 7.1079 9.09279 7.1079 12.6448ZM30.6771 16.8448V13.8448H22.3971V16.8448H18.7971V8.44479H22.3971V11.4448H30.6771V8.44479H34.2771V16.8448H30.6771ZM43.3982 17.2048C39.8702 17.2408 35.2502 15.8008 35.2622 12.6448C35.2382 9.46479 39.8462 8.03679 43.3982 8.08479C46.9502 8.03679 51.5822 9.46479 51.5582 12.6448C51.5702 15.8008 46.9262 17.2408 43.3982 17.2048ZM39.5222 12.6448C39.5222 14.0848 41.2862 14.7688 43.3982 14.7688C45.5102 14.7688 47.2982 14.0848 47.2982 12.6448C47.2982 11.2048 45.5102 10.5208 43.3982 10.5208C41.2862 10.5208 39.5222 11.2048 39.5222 12.6448ZM52.1721 16.8448V8.44479H65.3601C67.7121 8.44479 67.9641 11.7688 66.1401 12.5008V12.7048C68.3481 13.2328 68.1681 16.8448 65.7201 16.8448H52.1721ZM63.9561 11.4448C64.4121 11.4448 64.4001 10.8448 63.9561 10.8448H55.7721V11.4448H63.9561ZM64.2561 13.8448H55.7721V14.4448H64.2561C64.7121 14.4448 64.7001 13.8448 64.2561 13.8448ZM81.7247 16.8448L79.9967 13.8448H73.6967L71.9567 16.8448H67.8167L72.6527 8.44479H81.0287L85.8647 16.8448H81.7247ZM75.0767 11.4448H78.6047L78.2567 10.8448C78.2567 10.8448 75.4967 10.8448 75.4247 10.8448L75.0767 11.4448Z" fill="white"/>
<path fill-rule="evenodd" clip-rule="evenodd" d="M83.4432 8.20342C83.8461 7.75823 83.8634 7.51117 83.8518 7.42305C83.8402 7.33494 83.7595 7.10079 83.2551 6.7751C82.7595 6.45508 81.9889 6.1387 80.9172 5.85466C78.783 5.28906 75.692 4.91191 71.8385 4.75309C64.1478 4.43613 53.6148 4.99537 42.0719 6.51575C30.529 8.03613 20.2104 10.2234 12.8642 12.5209C9.18316 13.6722 6.2953 14.8368 4.38034 15.9358C3.41869 16.4876 2.75637 16.9927 2.36054 17.4302C1.95768 17.8754 1.94036 18.1224 1.95197 18.2105C1.96358 18.2987 2.04427 18.5328 2.54867 18.8585C3.04428 19.1785 3.8148 19.4949 4.88655 19.7789C7.02075 20.3445 10.1117 20.7217 13.9652 20.8805C21.6559 21.1975 32.1889 20.6382 43.7318 19.1178C55.2747 17.5975 65.5933 15.4102 72.9396 13.1127C76.6206 11.9614 79.5084 10.7968 81.4234 9.69783C82.385 9.14596 83.0474 8.64086 83.4432 8.20342ZM43.8624 20.1093C67.026 17.0583 85.3737 11.32 84.8432 7.29247C84.3127 3.26494 65.1049 2.47331 41.9413 5.52432C18.7778 8.57532 0.430046 14.3136 0.960534 18.3411C1.49102 22.3687 20.6988 23.1603 43.8624 20.1093Z" fill="#8FFF00"/>
<g clip-path="url(#clip0_22_35)">
<path d="M7.1079 12.6448C7.1079 16.1968 15.7239 14.4208 17.4759 13.8208V16.1608C14.4879 17.6848 3.0399 18.3688 2.8479 12.6448C3.0399 6.92079 14.4879 7.60479 17.4759 9.12879V11.4688C15.7239 10.8688 7.1079 9.09279 7.1079 12.6448ZM30.6771 16.8448V13.8448H22.3971V16.8448H18.7971V8.44479H22.3971V11.4448H30.6771V8.44479H34.2771V16.8448H30.6771ZM43.3982 17.2048C39.8702 17.2408 35.2502 15.8008 35.2622 12.6448C35.2382 9.46479 39.8462 8.03679 43.3982 8.08479C46.9502 8.03679 51.5822 9.46479 51.5582 12.6448C51.5702 15.8008 46.9262 17.2408 43.3982 17.2048ZM39.5222 12.6448C39.5222 14.0848 41.2862 14.7688 43.3982 14.7688C45.5102 14.7688 47.2982 14.0848 47.2982 12.6448C47.2982 11.2048 45.5102 10.5208 43.3982 10.5208C41.2862 10.5208 39.5222 11.2048 39.5222 12.6448ZM52.1721 16.8448V8.44479H65.3601C67.7121 8.44479 67.9641 11.7688 66.1401 12.5008V12.7048C68.3481 13.2328 68.1681 16.8448 65.7201 16.8448H52.1721ZM63.9561 11.4448C64.4121 11.4448 64.4001 10.8448 63.9561 10.8448H55.7721V11.4448H63.9561ZM64.2561 13.8448H55.7721V14.4448H64.2561C64.7121 14.4448 64.7001 13.8448 64.2561 13.8448ZM81.7247 16.8448L79.9967 13.8448H73.6967L71.9567 16.8448H67.8167L72.6527 8.44479H81.0287L85.8647 16.8448H81.7247ZM75.0767 11.4448H78.6047L78.2567 10.8448C78.2567 10.8448 75.4967 10.8448 75.4247 10.8448L75.0767 11.4448Z" fill="white"/>
</g>
<defs>
<clipPath id="clip0_22_35">
<rect width="50" height="12" fill="white" transform="translate(2.8479 7.84479)"/>
</clipPath>
</defs>
</svg>
